HIERARCHY
ROOT Hips
{
	OFFSET 0.00000 0.00000 0.00000
	CHANNELS 6 Xposition Yposition Zposition Zrotation Yrotation Xrotation 
	JOINT LHipJoint
	{
		OFFSET 0 0 0
		CHANNELS 3 Zrotation Yrotation Xrotation
		JOINT LeftUpLeg
		{
			OFFSET 1.54859 -1.61379 0.86856
			CHANNELS 3 Zrotation Yrotation Xrotation
			JOINT LeftLeg
			{
				OFFSET 2.25087 -6.18423 0.00000
				CHANNELS 3 Zrotation Yrotation Xrotation
				JOINT LeftFoot
				{
					OFFSET 2.40328 -6.60297 0.00000
					CHANNELS 3 Zrotation Yrotation Xrotation
					JOINT LeftToeBase
					{
						OFFSET 0.17435 -0.47901 2.02453
						CHANNELS 3 Zrotation Yrotation Xrotation
						End Site
						{
							OFFSET 0.00000 -0.00000 1.04844
						}
					}
				}
			}
		}
	}
	JOINT RHipJoint
	{
		OFFSET 0 0 0
		CHANNELS 3 Zrotation Yrotation Xrotation
		JOINT RightUpLeg
		{
			OFFSET -1.54669 -1.61379 0.86856
			CHANNELS 3 Zrotation Yrotation Xrotation
			JOINT RightLeg
			{
				OFFSET -2.28132 -6.26789 0.00000
				CHANNELS 3 Zrotation Yrotation Xrotation
				JOINT RightFoot
				{
					OFFSET -2.51636 -6.91365 0.00000
					CHANNELS 3 Zrotation Yrotation Xrotation
					JOINT RightToeBase
					{
						OFFSET -0.15124 -0.41552 2.21090
						CHANNELS 3 Zrotation Yrotation Xrotation
						End Site
						{
							OFFSET -0.00000 -0.00000 1.13399
						}
					}
				}
			}
		}
	}
	JOINT LowerBack
	{
		OFFSET 0 0 0
		CHANNELS 3 Zrotation Yrotation Xrotation
		JOINT Spine
		{
			OFFSET -0.04287 2.26161 -0.25690
			CHANNELS 3 Zrotation Yrotation Xrotation
			JOINT Spine1
			{
				OFFSET 0.02248 2.28395 -0.10140
				CHANNELS 3 Zrotation Yrotation Xrotation
				JOINT Neck
				{
					OFFSET 0 0 0
					CHANNELS 3 Zrotation Yrotation Xrotation
					JOINT Neck1
					{
						OFFSET -0.11644 1.38496 0.11345
						CHANNELS 3 Zrotation Yrotation Xrotation
						JOINT Head
						{
							OFFSET 0.29383 1.36600 0.06642
							CHANNELS 3 Zrotation Yrotation Xrotation
							End Site
							{
								OFFSET 0.11075 1.41395 -0.00294
							}
						}
					}
				}
				JOINT LeftShoulder
				{
					OFFSET 0 0 0
					CHANNELS 3 Zrotation Yrotation Xrotation
					JOINT LeftArm
					{
						OFFSET 3.51628 0.59542 -0.30346
						CHANNELS 3 Zrotation Yrotation Xrotation
						JOINT LeftForeArm
						{
							OFFSET 4.76405 -0.00000 0.00000
							CHANNELS 3 Zrotation Yrotation Xrotation
							JOINT LeftHand
							{
								OFFSET 3.13759 -0.00000 -0.00000
								CHANNELS 3 Zrotation Yrotation Xrotation
								JOINT LeftFingerBase
								{
									OFFSET 0 0 0
									CHANNELS 3 Zrotation Yrotation Xrotation
									JOINT LeftHandIndex1
									{
										OFFSET 0.73226 -0.00000 -0.00000
										CHANNELS 3 Zrotation Yrotation Xrotation
										End Site
										{
											OFFSET 0.59037 -0.00000 -0.00000
										}
									}
								}
								JOINT LThumb
								{
									OFFSET 0 0 0
									CHANNELS 3 Zrotation Yrotation Xrotation
									End Site
									{
										OFFSET 0.59938 -0.00000 0.59938
									}
								}
							}
						}
					}
				}
				JOINT RightShoulder
				{
					OFFSET 0 0 0
					CHANNELS 3 Zrotation Yrotation Xrotation
					JOINT RightArm
					{
						OFFSET -3.30990 0.84213 -0.36430
						CHANNELS 3 Zrotation Yrotation Xrotation
						JOINT RightForeArm
						{
							OFFSET -5.10161 -0.00000 -0.00000
							CHANNELS 3 Zrotation Yrotation Xrotation
							JOINT RightHand
							{
								OFFSET -3.23267 -0.00000 -0.00000
								CHANNELS 3 Zrotation Yrotation Xrotation
								JOINT RightFingerBase
								{
									OFFSET 0 0 0
									CHANNELS 3 Zrotation Yrotation Xrotation
									JOINT RightHandIndex1
									{
										OFFSET -0.70200 -0.00000 -0.00000
										CHANNELS 3 Zrotation Yrotation Xrotation
										End Site
										{
											OFFSET -0.56597 -0.00000 -0.00000
										}
									}
								}
								JOINT RThumb
								{
									OFFSET 0 0 0
									CHANNELS 3 Zrotation Yrotation Xrotation
									End Site
									{
										OFFSET -0.57461 -0.00000 0.57461
									}
								}
							}
						}
					}
				}
			}
		}
	}
}
MOTION
Frames: 5
Frame Time: .0083333
-23.3293 13.7570 5.2722 195.9300 22.1740 207.1360 0.0000 0.0000 0.0000 -18.2914 0.9039 -56.1372 18.1923 19.9215 84.7081 -1.8327 24.5283 -18.3924 8.2905 16.3288 53.6023 0.0000 0.0000 0.0000 17.8244 -13.7663 -12.8131 -13.5789 -18.9813 70.9144 0.0506 4.4283 -0.4411 -6.4280 14.8307 -46.6763 0.4149 -1.7241 22.2632 -0.7011 -0.2929 11.5504 -0.9186 0.6380 0.1650 -5.6683 -1.7707 -2.4658 15.5442 4.3836 -29.9332 5.9933 2.8781 -9.3211 -0.0000 0.0000 0.0000 -96.8355 10.2267 29.2328 23.8240 -34.9776 -7.6054 -0.0000 0.0000 -57.9465 -17.6570 62.9244 -15.8242 -7.1250 0.0000 -0.0000 -80.3883 -66.8998 104.3705 -0.0000 0.0000 0.0000 95.0553 2.5322 -1.5116 -93.4684 59.9545 -63.0033 0.0000 -0.0000 -45.6992 -25.1088 21.2455 -9.6376 7.1250 -0.0000 -0.0000 2.2468 -6.7580 1.9683
-23.2700 13.7807 4.9517 193.8270 19.5921 205.6690 0.0000 0.0000 0.0000 -19.2456 -2.2355 -52.4771 17.7371 19.8768 83.3706 -1.8559 24.4905 -17.8324 8.3176 16.3479 53.6986 0.0000 0.0000 0.0000 16.5185 -15.8049 -16.0208 -15.3102 -19.4643 76.1692 0.0196 4.0184 -1.9024 -6.4294 14.8319 -46.6817 0.7052 -3.2738 23.1326 -1.0606 -2.0988 11.9115 -1.0656 -0.1778 0.0843 -5.8558 -1.6341 -1.9451 15.5665 4.5897 -30.2837 6.0389 2.9648 -9.5800 0.0000 0.0000 0.0000 -96.7101 6.6824 30.0677 24.8788 -36.0799 -8.2184 -0.0000 0.0000 -60.6716 -12.8069 64.1094 -11.5579 -7.1250 0.0000 -0.0000 -84.1848 -68.5928 106.6939 0.0000 0.0000 0.0000 94.5763 2.3057 -2.4323 -94.8386 59.9114 -64.1891 0.0000 -0.0000 -46.8433 -24.3304 20.5729 -9.0281 7.1250 -0.0000 -0.0000 2.6699 -7.6121 2.2952
-23.2355 13.7827 4.6414 191.4350 16.0373 205.3710 0.0000 0.0000 0.0000 -20.5613 -6.9143 -49.9598 17.2432 19.8168 81.9160 -1.9775 24.9111 -17.1592 8.2597 16.3070 53.4929 0.0000 0.0000 0.0000 15.1697 -18.5794 -21.0792 -17.0965 -19.7967 81.4829 0.0116 4.1737 -2.4295 -5.4164 13.8379 -42.5919 1.8623 -5.1716 22.7311 -1.3385 -4.3593 11.8753 -1.5179 -1.2476 0.0795 -5.9791 -1.4852 -1.4619 15.5333 4.6474 -30.1173 6.0429 2.9449 -9.6193 0.0000 -0.0000 0.0000 -96.5287 3.2233 30.5728 25.6625 -36.8735 -8.6844 -0.0000 0.0000 -63.2210 -7.7147 65.2857 -7.0154 -7.1250 0.0000 -0.0000 -88.7997 -70.1657 109.8616 0.0000 -0.0000 0.0000 94.0753 2.1282 -3.6062 -95.6671 59.8783 -64.9059 0.0000 -0.0000 -49.2800 -23.4955 20.4328 -8.6296 7.1250 -0.0000 -0.0000 3.1889 -7.8996 2.7247
-23.0320 13.8813 4.3174 191.9300 18.4499 203.7240 0.0000 0.0000 0.0000 -20.8073 -1.7066 -45.8170 16.4944 19.7028 79.7013 -1.6273 23.2474 -17.4612 8.5776 16.5281 54.6177 0.0000 0.0000 0.0000 14.8586 -14.9214 -21.7921 -18.4651 -19.9434 85.5083 -0.0554 1.4828 -4.1779 -5.4279 13.8501 -42.6402 -1.3044 -3.8248 24.8498 -1.3919 -3.0486 12.1784 -0.0270 -0.6557 -0.3520 -5.8148 -1.3463 -0.8784 15.2330 4.6008 -29.8756 5.8978 2.8481 -9.6303 0.0000 0.0000 0.0000 -96.2915 0.0116 30.2618 26.1979 -37.4034 -9.0076 -0.0000 0.0000 -67.5297 3.7263 66.8492 3.4270 -7.1250 0.0000 -0.0000 -99.0372 -72.9409 117.0655 0.0000 0.0000 0.0000 93.6696 1.8815 -4.9351 -96.8332 59.8228 -65.9142 0.0000 -0.0000 -52.5813 -22.6522 20.2972 -8.2373 7.1250 -0.0000 -0.0000 3.7159 -8.1780 3.1563
-22.9311 13.9250 3.9945 191.4290 17.8700 203.1920 0.0000 0.0000 0.0000 -21.3319 -1.3067 -42.7832 15.7669 19.5648 77.5365 -1.6398 23.2299 -17.1626 8.7663 16.6549 55.2783 0.0000 0.0000 0.0000 14.6695 -13.8385 -25.2799 -19.8470 -19.9994 89.5526 -0.0653 0.4922 -4.6737 -5.1292 13.5278 -41.3777 -1.6091 -4.1532 25.5003 -1.5103 -3.5251 12.1172 0.1558 -0.8862 -0.7080 -5.9293 -1.1396 -0.4271 15.1483 4.6459 -29.3769 5.8697 2.8086 -9.5390 -0.0000 0.0000 0.0000 -96.0885 -2.7592 29.6188 27.2320 -38.3996 -9.6429 -0.0000 0.0000 -70.7652 13.6160 67.9678 12.6549 -7.1250 0.0000 -0.0000 -110.4348 -74.5086 126.1201 -0.0000 0.0000 0.0000 93.1443 1.8163 -6.3198 -97.7086 59.7743 -66.6707 0.0000 -0.0000 -55.1528 -22.0679 20.0609 -7.9168 7.1250 -0.0000 -0.0000 4.0703 -8.5176 3.4315
